<svg width="175" height="110" viewBox="0 0 175 110" fill="none" xmlns="http://www.w3.org/2000/svg">
<g clip-path="url(#clip0_117_200)">
<path fill-rule="evenodd" clip-rule="evenodd" d="M79.4595 13.4928C79.1902 12.9453 79.0757 12.2176 78.9142 10.8356L78.0662 3.48491C77.9451 2.38998 77.8709 1.76239 77.9652 1.29504C78.0662 0.987927 78.2681 0.740905 78.6113 0.433792V0.360352H78.5037H77.9517H74.8221C74.8221 0.360352 73.8799 2.47676 73.0857 4.32611C72.9107 4.72003 72.7357 5.13396 72.5607 5.56793C72.3385 6.09536 72.1635 6.52933 72.076 6.78302C72.0492 6.85646 72.0289 6.91656 72.0155 6.9633H71.8607C71.8607 6.95661 71.827 6.89652 71.7731 6.78302C71.6319 6.48926 71.3357 5.86837 70.9791 5.12729C70.7906 4.70668 70.5953 4.29941 70.4069 3.9055L68.9465 0.867752C68.8051 0.573992 68.7176 0.387057 68.7041 0.360352H65.3657H64.8946H64.8341V0.440464C65.0899 0.70752 65.2581 0.934524 65.3657 1.18823C65.5071 1.6756 65.4735 2.24976 65.3928 3.16443L64.7063 11.0626C64.612 12.1041 64.511 12.8852 64.2284 13.5262C64.0602 13.7865 63.8448 14.0069 63.5352 14.2806V14.314H64.2417H67.7012H68.3811V14.2806C68.0782 14.0069 67.8629 13.7131 67.708 13.3793C67.5801 12.8919 67.6004 12.2042 67.6811 10.9491L67.7417 9.9543C67.8022 8.97288 67.8426 8.11163 67.8426 7.09681V6.97665V6.83643L67.8493 6.14209H68.0579L68.3069 6.83643L68.4147 7.1302C68.7444 8.07156 69.0473 8.81265 69.5051 9.79408L69.7944 10.435L71.5781 14.6278H71.6453L72.8904 11.5833L73.3885 10.4283L73.6711 9.79408C74.0615 8.89945 74.4183 7.97141 74.7279 7.04341L74.7885 6.86981L75.0172 6.17549H75.2258L75.2529 6.86981L75.2596 7.11685C75.3 8.04485 75.3605 9.05967 75.4346 10.1412L75.4818 10.7355C75.5759 12.0373 75.6297 12.8118 75.5287 13.3726C75.374 13.7064 75.1586 14.0002 74.8557 14.2739V14.3073H75.5355H79.4595H80.1728V14.2739C79.8498 13.9868 79.6277 13.7598 79.4595 13.4928Z" fill="white"/>
<path fill-rule="evenodd" clip-rule="evenodd" d="M110.018 13.4928C109.749 12.9453 109.634 12.2176 109.473 10.8356L108.625 3.48491C108.504 2.38998 108.43 1.76239 108.524 1.29504C108.625 0.987927 108.827 0.740905 109.17 0.433792V0.360352H109.062H108.51H105.381C105.381 0.360352 104.439 2.47676 103.644 4.32611C103.469 4.72003 103.294 5.13396 103.119 5.56793C102.897 6.09536 102.722 6.52933 102.635 6.78302C102.608 6.85646 102.587 6.91656 102.574 6.9633H102.419C102.419 6.95661 102.386 6.89652 102.332 6.78302C102.191 6.48926 101.894 5.86837 101.538 5.12729C101.349 4.70668 101.154 4.29941 100.966 3.9055L99.5051 0.867752C99.3637 0.573992 99.2762 0.387057 99.2627 0.360352H95.9243H95.4532H95.3927V0.440464C95.6485 0.70752 95.8167 0.934524 95.9243 1.18823C96.0657 1.6756 96.0321 2.24976 95.9514 3.16443L95.2649 11.0626C95.1706 12.1041 95.0696 12.8852 94.787 13.5262C94.6188 13.7865 94.4034 14.0069 94.0938 14.2806V14.314H94.8071H98.2666H98.9465V14.2806C98.6436 14.0069 98.4282 13.7131 98.2733 13.3793C98.1454 12.8919 98.1657 12.2042 98.2465 10.9491L98.3069 9.9543C98.3676 8.97288 98.4079 8.11163 98.4079 7.09681V6.97665V6.83643L98.4147 6.14209H98.6233L98.8723 6.83643L98.9801 7.1302C99.3098 8.07156 99.6127 8.81265 100.07 9.79408L100.36 10.435L102.143 14.6278H102.211L103.456 11.5833L103.954 10.4283L104.236 9.79408C104.627 8.89945 104.977 7.97141 105.293 7.04341L105.354 6.86981L105.583 6.17549H105.791L105.818 6.86981L105.825 7.11685C105.865 8.04485 105.926 9.05967 106 10.1412L106.047 10.7355C106.141 12.0373 106.195 12.8118 106.094 13.3726C105.939 13.7064 105.724 14.0002 105.421 14.2739V14.3073H106.087H110.011H110.718V14.2739C110.408 13.9868 110.186 13.7598 110.018 13.4928Z" fill="white"/>
<path fill-rule="evenodd" clip-rule="evenodd" d="M88.5223 12.0041C86.2206 12.0041 84.6188 10.1281 84.6188 7.43748C84.6188 5.05402 85.837 2.65052 88.5629 2.65052C90.0301 2.65052 91.2752 3.2781 92.5943 4.68014L92.6482 4.74023V0.88796L92.6281 0.881277C91.1607 0.287079 89.7541 0 88.3272 0C84.1745 0 80.7891 3.41162 80.7891 7.59772C80.7891 11.6436 83.9794 14.7014 88.2061 14.7014C89.7406 14.7014 91.3828 14.2207 92.7088 13.3928L92.7222 13.3861V9.52052L92.6684 9.58727C91.4232 11.1162 89.9156 12.0041 88.5223 12.0041Z" fill="white"/>
<path fill-rule="evenodd" clip-rule="evenodd" d="M86.2853 60.9487C86.1708 60.9286 86.0564 60.9019 85.9421 60.8751C85.7064 60.8218 85.4843 60.7617 85.2556 60.6883C84.2056 60.361 83.2701 59.8805 82.4826 59.2595L81.1162 58.1846L80.5375 61.5294C78.2559 74.4682 76.1088 76.1307 74.4868 76.1307C72.434 76.1307 68.463 73.814 64.9497 71.7644C60.2519 69.0204 55.3924 66.1895 51.4418 66.1895C49.0254 66.1895 46.986 67.1308 45.3776 68.9936C40.9153 74.1478 40.1884 86.5058 43.2305 105.727L43.5468 107.737L43.9641 110L60.1644 107.563L59.6058 105.286L59.0673 103.13C55.0627 87.0465 56.1193 82.5534 57.1021 81.3116C57.2972 81.0646 57.5193 80.9109 58.0173 80.9109C59.5586 80.9109 62.9037 83.3679 65.6026 85.3508C69.4389 88.1749 73.41 91.0924 76.7885 91.0924C81.5404 91.0924 83.4047 86.9798 84.9123 82.767C86.5747 78.1069 87.6515 71.464 88.116 63.0182L88.2169 61.209L87.241 61.1088C86.9515 61.0688 86.6622 61.0221 86.2853 60.9487Z" fill="white"/>
<path fill-rule="evenodd" clip-rule="evenodd" d="M123.436 66.9705C119.418 66.9705 115.204 69.2539 111.126 71.4638C107.888 73.2197 104.833 74.8754 102.766 74.8754C99.5494 74.8754 97.4091 70.8963 95.5986 61.576L95.04 58.7119L93.7478 59.5866C92.4689 60.4477 90.9141 60.9819 89.2451 61.1221L88.2422 61.2089L88.35 63.0182C89.4873 82.3664 92.0045 88.8957 98.3244 88.8957C100.956 88.8957 104.436 87.1399 107.485 85.4307L107.747 85.284C111.395 83.2742 113.407 82.166 115.198 82.166C116.234 82.166 116.638 82.5266 116.887 82.8738C117.654 83.9286 118.94 87.8676 114.276 101.641L113.535 103.831L112.721 106.188L128.712 109.366L129.056 109.439L129.608 107.036L130.045 105.079C134.151 86.5991 134.124 75.1224 129.958 70.0017C128.322 67.9854 126.128 66.9705 123.436 66.9705Z" fill="white"/>
<path fill-rule="evenodd" clip-rule="evenodd" d="M87.8945 47.3958L87.8607 47.3691C87.5511 47.3958 87.2416 47.4358 86.9453 47.496" fill="white"/>
<path fill-rule="evenodd" clip-rule="evenodd" d="M89.2266 47.4086C89.5026 47.4287 89.7718 47.4755 90.0343 47.5155C89.7786 47.4554 89.5161 47.4153 89.2468 47.3887C89.2401 47.3954 89.2333 47.4019 89.2266 47.4086Z" fill="white"/>
<path fill-rule="evenodd" clip-rule="evenodd" d="M99.7376 32.0996C98.2839 25.5634 92.9802 22.7861 87.9055 22.9997C87.9055 22.9997 83.1471 23.0064 79.8356 26.7985C76.329 30.8178 75.6829 38.2484 79.0415 43.5896C80.2462 45.5057 81.8548 47.2215 83.4297 48.6369C83.7258 48.47 84.0422 48.3232 84.3653 48.183C84.4528 48.1429 84.5469 48.1161 84.6412 48.0761C84.8432 47.996 85.0518 47.9293 85.2604 47.8624C85.469 47.7958 85.6776 47.7423 85.893 47.6888C86.0479 47.6488 86.2026 47.6155 86.3574 47.5888C86.5526 47.5488 86.7477 47.5153 86.9498 47.4886C87.2594 47.4486 87.5756 47.4085 87.8988 47.3951L87.8651 47.3685C87.9256 47.3618 87.9795 47.3484 88.0334 47.3484L86.9227 46.2068C86.9227 46.2068 84.7893 43.8901 84.4057 41.1394C84.0153 38.3887 84.4932 36.0053 86.1959 34.4964C87.8988 32.9875 89.8775 33.5951 90.8467 34.523C91.8158 35.4445 92.6236 36.7863 92.6976 39.4235C92.7648 42.0673 91.8091 44.2773 90.1131 46.2001C89.6285 46.7475 89.2986 47.1148 89.0631 47.3618C89.1303 47.3685 89.191 47.3819 89.2516 47.3884C89.2449 47.3951 89.2381 47.4018 89.2314 47.4085C89.5074 47.4285 89.7765 47.4752 90.039 47.5153C90.2611 47.5488 90.49 47.5955 90.7053 47.6421C90.7996 47.6622 90.9004 47.6888 90.9947 47.7157C91.2504 47.7823 91.5062 47.8492 91.7486 47.936C91.9841 48.0161 92.2129 48.1029 92.4418 48.1962C92.4957 48.2163 92.5494 48.2364 92.5966 48.2564C92.9197 48.4033 93.2293 48.5635 93.5254 48.7371C95.107 47.128 96.7224 45.3522 97.604 43.9769C99.0107 41.7604 101.016 37.8346 99.7376 32.0996Z" fill="white"/>
<path fill-rule="evenodd" clip-rule="evenodd" d="M81.6328 54.1326C81.6328 57.0301 84.574 59.3736 88.2017 59.3736C91.8296 59.3736 94.7708 57.0301 94.7708 54.1326C94.7708 51.2349 91.8296 48.8916 88.2017 48.8916C84.574 48.8916 81.6328 51.2416 81.6328 54.1326Z" fill="white"/>
<path fill-rule="evenodd" clip-rule="evenodd" d="M11.4963 23.5143L12.9098 24.0685L12.7886 22.5663C11.7252 9.36713 5.97064 6.04229 1.73718 4.68699L0.767984 4.37988L0.525697 5.36131C-0.8877 11.1164 -0.133897 18.9344 11.4963 23.5143Z" fill="white"/>
<path fill-rule="evenodd" clip-rule="evenodd" d="M25.3087 37.0668L23.3568 35.9585C20.7724 34.4897 18.733 32.5068 16.5725 30.4037C13.3082 27.2192 9.92955 23.9209 4.42403 22.3787L3.38753 22.085L3.23273 23.1466C2.47217 28.4476 3.83847 32.9141 7.08928 35.7315C9.36418 37.701 12.4737 38.7426 16.0946 38.7426C18.2484 38.7426 20.6175 38.382 23.155 37.6677L25.3087 37.0668Z" fill="white"/>
<path fill-rule="evenodd" clip-rule="evenodd" d="M63.4073 49.9196L64.8678 48.7512L63.0505 48.2771C53.7019 45.8604 49.1723 45.0526 39.6555 51.1748L38.6055 51.849L39.5479 52.6636C42.1727 54.9402 45.235 56.0952 48.6609 56.0952C53.2511 56.1086 58.346 53.9655 63.4073 49.9196Z" fill="white"/>
<path fill-rule="evenodd" clip-rule="evenodd" d="M32.0565 37.2075L35.2399 37.8484L32.9045 35.6118C31.5651 34.3299 30.3872 32.0199 29.0143 29.3359C26.0595 23.5609 22.3915 16.3838 14.5572 15.122L13.2852 14.915L13.4736 16.1835C15.1899 27.8405 21.6175 35.1044 32.0565 37.2075Z" fill="white"/>
<path fill-rule="evenodd" clip-rule="evenodd" d="M47.7784 45.2791L45.8534 44.5514C44.2718 43.9505 42.7978 43.3698 41.3777 42.809C32.0829 39.1435 26.4698 36.927 17.5586 40.5925L16.6836 40.9529L17.047 41.8208C18.2585 44.7185 21.0113 47.0484 24.787 48.3837C27.1628 49.2183 29.7743 49.6456 32.5405 49.6456C37.124 49.6456 41.8892 48.4439 45.9611 46.2607L47.7784 45.2791Z" fill="white"/>
<path fill-rule="evenodd" clip-rule="evenodd" d="M97.8094 46.4408L97.1094 47.7294L98.5698 47.9363C99.4045 48.0565 100.226 48.1166 101.02 48.1166C109.372 48.1166 113.666 41.547 116.251 37.5879C116.789 36.7601 117.26 36.0457 117.691 35.4848L118.781 34.0761L117.005 33.8491C106.263 32.4872 102.278 38.2089 97.8094 46.4408Z" fill="white"/>
<path fill-rule="evenodd" clip-rule="evenodd" d="M113.125 45.3523L114.936 45.2387C128.127 44.4176 131.6 38.1085 134.393 33.0411C135.174 31.619 135.914 30.277 136.789 29.2889L138.115 27.7867L136.103 27.7267C127.394 27.5063 121.404 31.846 114.067 43.8101L113.125 45.3523Z" fill="white"/>
<path fill-rule="evenodd" clip-rule="evenodd" d="M133.52 39.3176L135.31 38.957C146.987 36.5936 151.914 31.9937 154.835 20.7305L155.111 19.6623L154.007 19.5621C144.679 18.7143 138.116 28.9359 134.253 37.6552L133.52 39.3176Z" fill="white"/>
<path fill-rule="evenodd" clip-rule="evenodd" d="M65.123 40.0316L65.1298 40.045C68.8989 46.3206 70.1708 48.4371 78.6715 48.5774L80.8858 48.6107L79.4858 46.9083C78.584 45.8133 77.8504 44.5314 77.0764 43.1829C74.687 39.0168 71.9948 34.2698 63.474 34.3899L61.6367 34.4167L62.6193 35.9523C63.6019 37.4945 64.4097 38.8432 65.123 40.0316Z" fill="white"/>
<path fill-rule="evenodd" clip-rule="evenodd" d="M50.6353 43.8033L52.9708 44.2174L51.5573 42.3212C50.6892 41.1528 49.821 39.9177 48.9728 38.716C44.275 32.033 39.4088 25.1162 31.1506 25.1162C31.0295 25.1162 30.9016 25.1162 30.7737 25.1229L29.293 25.163L29.9526 26.4781C34.7985 36.1523 37.4637 41.4866 50.6353 43.8033Z" fill="white"/>
<path fill-rule="evenodd" clip-rule="evenodd" d="M49.8683 36.4196L49.8751 36.433C53.0854 41.1198 56.4102 45.9736 65.2742 47.242L66.9299 47.4823L66.2771 45.9535C60.5696 32.5139 54.593 29.8768 46.8396 29.9835L44.6992 30.0036L46.1597 31.5591C47.5597 33.0548 48.7308 34.7706 49.8683 36.4196Z" fill="white"/>
<path fill-rule="evenodd" clip-rule="evenodd" d="M149.634 42.0147C142.984 40.232 137.243 38.6831 127.066 44.2046L125.391 45.1124L127.134 45.8869C133.629 48.7577 138.946 50.1465 143.388 50.1465C148.382 50.1465 152.218 48.2839 154.776 44.605L155.577 43.4567L154.204 43.1563C152.588 42.8091 151.088 42.4085 149.634 42.0147Z" fill="white"/>
<path fill-rule="evenodd" clip-rule="evenodd" d="M156.9 30.858L156.88 30.8645C152.922 33.1411 149.18 35.291 145.822 37.8546L144.469 38.8828L146.064 39.4771C149.113 40.6053 151.993 41.1796 154.618 41.1796C157.802 41.1796 160.608 40.3584 162.957 38.7427C167.022 35.9453 169.257 31.0448 169.257 24.9425V23.1533L167.77 24.1748C164.014 26.7653 160.4 28.8482 156.9 30.858Z" fill="white"/>
<path fill-rule="evenodd" clip-rule="evenodd" d="M154.203 28.9292L156.101 28.1947C169.098 23.1674 175.472 15.4228 174.051 6.38297L173.897 5.4082L172.927 5.60851C164.878 7.24422 159.473 13.6469 154.863 27.0129L154.203 28.9292Z" fill="white"/>
<path fill-rule="evenodd" clip-rule="evenodd" d="M131.608 49.5592C125.215 47.3025 119.696 45.3598 109.539 48.3908L107.938 48.8715L109.176 49.9865C116.606 56.6628 122.926 58.0649 126.917 58.0649C127.907 58.0649 128.869 57.9781 129.778 57.8111C133.311 57.1636 136.212 55.2342 137.531 52.6504L138.049 51.6421L136.959 51.3218C135.034 50.7676 133.291 50.1534 131.608 49.5592Z" fill="white"/>
<path fill-rule="evenodd" clip-rule="evenodd" d="M68.6601 59.9938C64.8775 60.4745 60.7922 59.2862 57.3058 57.6371L56.3164 57.1697L57.1645 56.4821C64.8708 50.4066 66.9304 47.8962 80.8893 50.6603C80.8961 50.6603 78.7356 58.7053 68.6601 59.9938Z" fill="white"/>
<path fill-rule="evenodd" clip-rule="evenodd" d="M107.371 59.8739C110.803 60.0876 113.589 58.6988 115.286 57.5038L116.161 56.8828L115.232 56.3488C114.35 55.8414 113.455 55.1336 112.506 54.386C109.242 51.7955 105.17 48.5707 97.5373 50.1664L96.5547 50.3734L96.0567 50.5069L95.5586 50.627C95.5586 50.627 98.7959 59.3397 107.371 59.8739Z" fill="white"/>
</g>
<defs>
<clipPath id="clip0_117_200">
<rect width="175" height="110" fill="white"/>
</clipPath>
</defs>
</svg>
